# xmcd
#
# Track frame offsets: 
#        150
#        32652
#        69284
#        95516
#        132914
#        159854
#        189242
#        205780
#        224297
#
# Disc length: 3076 seconds
#
# Revision: 0
# Processed by: cddbd v1.5.2PL0 Copyright (c) Steve Scherf et al.
# Submitted via: ExactAudioCopy v0.95a5
#
DISCID=710c0209
DTITLE=陈雷激 - 猿啸青萝
DYEAR=1900
DGENRE=Folk
TTITLE0=流水
TTITLE1=幽兰
TTITLE2=古风操
TTITLE3=神人畅
TTITLE4=平沙落雁
TTITLE5=阳关三叠
TTITLE6=酒狂
TTITLE7=良宵引
TTITLE8=画卷
EXTD=
EXTT0=
EXTT1=
EXTT2=
EXTT3=
EXTT4=
EXTT5=
EXTT6=
EXTT7=
EXTT8=
PLAYORDER=
